<?xml version="1.0" encoding="utf-8" standalone="no"?>
<!DOCTYPE svg PUBLIC "-//W3C//DTD SVG 1.1//EN"
  "http://www.w3.org/Graphics/SVG/1.1/DTD/svg11.dtd">
<!-- Created with matplotlib (https://matplotlib.org/) -->
<svg height="288pt" version="1.1" viewBox="0 0 432 288" width="432pt" xmlns="http://www.w3.org/2000/svg" xmlns:xlink="http://www.w3.org/1999/xlink">
 <defs>
  <style type="text/css">
*{stroke-linecap:butt;stroke-linejoin:round;}
  </style>
 </defs>
 <g id="figure_1">
  <g id="patch_1">
   <path d="M 0 288 
L 432 288 
L 432 0 
L 0 0 
z
" style="fill:#ffffff;"/>
  </g>
  <g id="axes_1">
   <g id="patch_2">
    <path d="M 54 252 
L 388.8 252 
L 388.8 34.56 
L 54 34.56 
z
" style="fill:#ffffff;"/>
   </g>
   <g id="PathCollection_1">
    <defs>
     <path d="M 0 3 
C 0.795609 3 1.55874 2.683901 2.12132 2.12132 
C 2.683901 1.55874 3 0.795609 3 0 
C 3 -0.795609 2.683901 -1.55874 2.12132 -2.12132 
C 1.55874 -2.683901 0.795609 -3 0 -3 
C -0.795609 -3 -1.55874 -2.683901 -2.12132 -2.12132 
C -2.683901 -1.55874 -3 -0.795609 -3 0 
C -3 0.795609 -2.683901 1.55874 -2.12132 2.12132 
C -1.55874 2.683901 -0.795609 3 0 3 
z
" id="m799111b335" style="stroke:#0000ff;"/>
    </defs>
    <g clip-path="url(#p208cbd062f)">
     <use style="fill:#0000ff;stroke:#0000ff;" x="178.600215" xlink:href="#m799111b335" y="149.261751"/>
     <use style="fill:#0000ff;stroke:#0000ff;" x="191.671421" xlink:href="#m799111b335" y="177.284057"/>
     <use style="fill:#0000ff;stroke:#0000ff;" x="203.225755" xlink:href="#m799111b335" y="148.464796"/>
     <use style="fill:#0000ff;stroke:#0000ff;" x="185.877794" xlink:href="#m799111b335" y="54.816712"/>
     <use style="fill:#0000ff;stroke:#0000ff;" x="188.990414" xlink:href="#m799111b335" y="141.261815"/>
     <use style="fill:#0000ff;stroke:#0000ff;" x="192.406597" xlink:href="#m799111b335" y="150.462093"/>
     <use style="fill:#0000ff;stroke:#0000ff;" x="198.202575" xlink:href="#m799111b335" y="120.68197"/>
     <use style="fill:#0000ff;stroke:#0000ff;" x="187.441579" xlink:href="#m799111b335" y="206.238399"/>
     <use style="fill:#0000ff;stroke:#0000ff;" x="202.013264" xlink:href="#m799111b335" y="140.217171"/>
     <use style="fill:#0000ff;stroke:#0000ff;" x="195.315689" xlink:href="#m799111b335" y="134.440222"/>
     <use style="fill:#0000ff;stroke:#0000ff;" x="188.997042" xlink:href="#m799111b335" y="137.76346"/>
     <use style="fill:#0000ff;stroke:#0000ff;" x="185.59938" xlink:href="#m799111b335" y="140.999754"/>
     <use style="fill:#0000ff;stroke:#0000ff;" x="190.191467" xlink:href="#m799111b335" y="157.565285"/>
     <use style="fill:#0000ff;stroke:#0000ff;" x="186.250869" xlink:href="#m799111b335" y="157.899489"/>
     <use style="fill:#0000ff;stroke:#0000ff;" x="193.501889" xlink:href="#m799111b335" y="137.415837"/>
     <use style="fill:#0000ff;stroke:#0000ff;" x="200.403233" xlink:href="#m799111b335" y="158.509911"/>
     <use style="fill:#0000ff;stroke:#0000ff;" x="201.903037" xlink:href="#m799111b335" y="103.414328"/>
     <use style="fill:#0000ff;stroke:#0000ff;" x="179.338271" xlink:href="#m799111b335" y="131.959258"/>
     <use style="fill:#0000ff;stroke:#0000ff;" x="185.502216" xlink:href="#m799111b335" y="171.964515"/>
     <use style="fill:#0000ff;stroke:#0000ff;" x="187.094341" xlink:href="#m799111b335" y="159.409568"/>
     <use style="fill:#0000ff;stroke:#0000ff;" x="194.558239" xlink:href="#m799111b335" y="166.819946"/>
     <use style="fill:#0000ff;stroke:#0000ff;" x="192.212287" xlink:href="#m799111b335" y="146.555713"/>
     <use style="fill:#0000ff;stroke:#0000ff;" x="190.44407" xlink:href="#m799111b335" y="210.863902"/>
     <use style="fill:#0000ff;stroke:#0000ff;" x="189.888344" xlink:href="#m799111b335" y="208.043947"/>
     <use style="fill:#0000ff;stroke:#0000ff;" x="190.757625" xlink:href="#m799111b335" y="165.960179"/>
     <use style="fill:#0000ff;stroke:#0000ff;" x="189.058013" xlink:href="#m799111b335" y="112.767988"/>
     <use style="fill:#0000ff;stroke:#0000ff;" x="184.871956" xlink:href="#m799111b335" y="195.124878"/>
     <use style="fill:#0000ff;stroke:#0000ff;" x="192.157265" xlink:href="#m799111b335" y="122.802697"/>
     <use style="fill:#0000ff;stroke:#0000ff;" x="185.289614" xlink:href="#m799111b335" y="153.922772"/>
     <use style="fill:#0000ff;stroke:#0000ff;" x="185.644623" xlink:href="#m799111b335" y="176.781419"/>
     <use style="fill:#0000ff;stroke:#0000ff;" x="187.376754" xlink:href="#m799111b335" y="172.199988"/>
     <use style="fill:#0000ff;stroke:#0000ff;" x="195.411919" xlink:href="#m799111b335" y="204.484254"/>
     <use style="fill:#0000ff;stroke:#0000ff;" x="204.648983" xlink:href="#m799111b335" y="141.697128"/>
     <use style="fill:#0000ff;stroke:#0000ff;" x="201.710141" xlink:href="#m799111b335" y="179.21538"/>
     <use style="fill:#0000ff;stroke:#0000ff;" x="188.675853" xlink:href="#m799111b335" y="182.072842"/>
     <use style="fill:#0000ff;stroke:#0000ff;" x="208.728603" xlink:href="#m799111b335" y="176.646449"/>
     <use style="fill:#0000ff;stroke:#0000ff;" x="194.738312" xlink:href="#m799111b335" y="202.554304"/>
     <use style="fill:#0000ff;stroke:#0000ff;" x="190.788528" xlink:href="#m799111b335" y="141.343099"/>
     <use style="fill:#0000ff;stroke:#0000ff;" x="198.596241" xlink:href="#m799111b335" y="228.329274"/>
     <use style="fill:#0000ff;stroke:#0000ff;" x="200.611648" xlink:href="#m799111b335" y="146.705563"/>
     <use style="fill:#0000ff;stroke:#0000ff;" x="190.49459" xlink:href="#m799111b335" y="181.967725"/>
     <use style="fill:#0000ff;stroke:#0000ff;" x="186.739941" xlink:href="#m799111b335" y="187.655459"/>
     <use style="fill:#0000ff;stroke:#0000ff;" x="203.568416" xlink:href="#m799111b335" y="142.367231"/>
     <use style="fill:#0000ff;stroke:#0000ff;" x="181.041644" xlink:href="#m799111b335" y="142.307282"/>
     <use style="fill:#0000ff;stroke:#0000ff;" x="179.025407" xlink:href="#m799111b335" y="242.078865"/>
     <use style="fill:#0000ff;stroke:#0000ff;" x="187.13618" xlink:href="#m799111b335" y="177.605252"/>
     <use style="fill:#0000ff;stroke:#0000ff;" x="191.845284" xlink:href="#m799111b335" y="44.481135"/>
     <use style="fill:#0000ff;stroke:#0000ff;" x="188.81808" xlink:href="#m799111b335" y="73.903657"/>
     <use style="fill:#0000ff;stroke:#0000ff;" x="184.167089" xlink:href="#m799111b335" y="148.258205"/>
     <use style="fill:#0000ff;stroke:#0000ff;" x="189.358947" xlink:href="#m799111b335" y="159.287085"/>
     <use style="fill:#0000ff;stroke:#0000ff;" x="179.392711" xlink:href="#m799111b335" y="80.945619"/>
     <use style="fill:#0000ff;stroke:#0000ff;" x="176.550933" xlink:href="#m799111b335" y="185.7896"/>
     <use style="fill:#0000ff;stroke:#0000ff;" x="201.302987" xlink:href="#m799111b335" y="172.520271"/>
     <use style="fill:#0000ff;stroke:#0000ff;" x="193.391099" xlink:href="#m799111b335" y="157.311557"/>
     <use style="fill:#0000ff;stroke:#0000ff;" x="189.080016" xlink:href="#m799111b335" y="134.250831"/>
     <use style="fill:#0000ff;stroke:#0000ff;" x="189.752851" xlink:href="#m799111b335" y="209.926142"/>
     <use style="fill:#0000ff;stroke:#0000ff;" x="185.275506" xlink:href="#m799111b335" y="71.783361"/>
     <use style="fill:#0000ff;stroke:#0000ff;" x="189.818322" xlink:href="#m799111b335" y="137.019979"/>
     <use style="fill:#0000ff;stroke:#0000ff;" x="206.863231" xlink:href="#m799111b335" y="148.211069"/>
     <use style="fill:#0000ff;stroke:#0000ff;" x="192.981899" xlink:href="#m799111b335" y="182.710473"/>
     <use style="fill:#0000ff;stroke:#0000ff;" x="195.54664" xlink:href="#m799111b335" y="169.509164"/>
     <use style="fill:#0000ff;stroke:#0000ff;" x="199.561729" xlink:href="#m799111b335" y="159.322735"/>
     <use style="fill:#0000ff;stroke:#0000ff;" x="195.950804" xlink:href="#m799111b335" y="167.644267"/>
     <use style="fill:#0000ff;stroke:#0000ff;" x="179.348992" xlink:href="#m799111b335" y="153.830645"/>
     <use style="fill:#0000ff;stroke:#0000ff;" x="184.025199" xlink:href="#m799111b335" y="212.437874"/>
     <use style="fill:#0000ff;stroke:#0000ff;" x="205.212992" xlink:href="#m799111b335" y="173.43171"/>
     <use style="fill:#0000ff;stroke:#0000ff;" x="205.044493" xlink:href="#m799111b335" y="157.633179"/>
     <use style="fill:#0000ff;stroke:#0000ff;" x="200.258876" xlink:href="#m799111b335" y="167.245428"/>
     <use style="fill:#0000ff;stroke:#0000ff;" x="190.240358" xlink:href="#m799111b335" y="78.28258"/>
     <use style="fill:#0000ff;stroke:#0000ff;" x="192.16636" xlink:href="#m799111b335" y="52.407291"/>
     <use style="fill:#0000ff;stroke:#0000ff;" x="190.696672" xlink:href="#m799111b335" y="175.683716"/>
     <use style="fill:#0000ff;stroke:#0000ff;" x="185.572451" xlink:href="#m799111b335" y="189.654863"/>
     <use style="fill:#0000ff;stroke:#0000ff;" x="194.738312" xlink:href="#m799111b335" y="218.467667"/>
     <use style="fill:#0000ff;stroke:#0000ff;" x="187.895887" xlink:href="#m799111b335" y="170.634187"/>
     <use style="fill:#0000ff;stroke:#0000ff;" x="186.372118" xlink:href="#m799111b335" y="176.383869"/>
     <use style="fill:#0000ff;stroke:#0000ff;" x="195.570414" xlink:href="#m799111b335" y="116.471549"/>
     <use style="fill:#0000ff;stroke:#0000ff;" x="200.010016" xlink:href="#m799111b335" y="156.34714"/>
     <use style="fill:#0000ff;stroke:#0000ff;" x="191.707082" xlink:href="#m799111b335" y="152.686474"/>
     <use style="fill:#0000ff;stroke:#0000ff;" x="188.982812" xlink:href="#m799111b335" y="72.602885"/>
     <use style="fill:#0000ff;stroke:#0000ff;" x="193.947556" xlink:href="#m799111b335" y="144.079195"/>
     <use style="fill:#0000ff;stroke:#0000ff;" x="176.550933" xlink:href="#m799111b335" y="145.999423"/>
     <use style="fill:#0000ff;stroke:#0000ff;" x="195.86099" xlink:href="#m799111b335" y="223.292334"/>
     <use style="fill:#0000ff;stroke:#0000ff;" x="194.128479" xlink:href="#m799111b335" y="177.171345"/>
     <use style="fill:#0000ff;stroke:#0000ff;" x="194.738312" xlink:href="#m799111b335" y="162.981565"/>
     <use style="fill:#0000ff;stroke:#0000ff;" x="205.771989" xlink:href="#m799111b335" y="126.422706"/>
     <use style="fill:#0000ff;stroke:#0000ff;" x="195.315689" xlink:href="#m799111b335" y="147.328546"/>
     <use style="fill:#0000ff;stroke:#0000ff;" x="183.079736" xlink:href="#m799111b335" y="194.720112"/>
     <use style="fill:#0000ff;stroke:#0000ff;" x="184.025199" xlink:href="#m799111b335" y="172.351441"/>
     <use style="fill:#0000ff;stroke:#0000ff;" x="189.980432" xlink:href="#m799111b335" y="165.910975"/>
     <use style="fill:#0000ff;stroke:#0000ff;" x="188.098475" xlink:href="#m799111b335" y="99.696338"/>
    </g>
   </g>
   <g id="PathCollection_2">
    <defs>
     <path d="M 0 3 
C 0.795609 3 1.55874 2.683901 2.12132 2.12132 
C 2.683901 1.55874 3 0.795609 3 0 
C 3 -0.795609 2.683901 -1.55874 2.12132 -2.12132 
C 1.55874 -2.683901 0.795609 -3 0 -3 
C -0.795609 -3 -1.55874 -2.683901 -2.12132 -2.12132 
C -2.683901 -1.55874 -3 -0.795609 -3 0 
C -3 0.795609 -2.683901 1.55874 -2.12132 2.12132 
C -1.55874 2.683901 -0.795609 3 0 3 
z
" id="m1e16de2f45" style="stroke:#ffa500;"/>
    </defs>
    <g clip-path="url(#p208cbd062f)">
     <use style="fill:#ffa500;stroke:#ffa500;" x="195.880515" xlink:href="#m1e16de2f45" y="130.431213"/>
     <use style="fill:#ffa500;stroke:#ffa500;" x="199.646017" xlink:href="#m1e16de2f45" y="201.77475"/>
     <use style="fill:#ffa500;stroke:#ffa500;" x="195.019353" xlink:href="#m1e16de2f45" y="175.294284"/>
     <use style="fill:#ffa500;stroke:#ffa500;" x="182.678581" xlink:href="#m1e16de2f45" y="160.563143"/>
     <use style="fill:#ffa500;stroke:#ffa500;" x="208.817247" xlink:href="#m1e16de2f45" y="115.514212"/>
     <use style="fill:#ffa500;stroke:#ffa500;" x="189.449784" xlink:href="#m1e16de2f45" y="167.69692"/>
     <use style="fill:#ffa500;stroke:#ffa500;" x="187.059197" xlink:href="#m1e16de2f45" y="160.034956"/>
     <use style="fill:#ffa500;stroke:#ffa500;" x="182.234489" xlink:href="#m1e16de2f45" y="153.070089"/>
     <use style="fill:#ffa500;stroke:#ffa500;" x="195.277007" xlink:href="#m1e16de2f45" y="161.515254"/>
     <use style="fill:#ffa500;stroke:#ffa500;" x="187.129722" xlink:href="#m1e16de2f45" y="107.570514"/>
     <use style="fill:#ffa500;stroke:#ffa500;" x="188.675853" xlink:href="#m1e16de2f45" y="221.786918"/>
     <use style="fill:#ffa500;stroke:#ffa500;" x="190.696672" xlink:href="#m1e16de2f45" y="176.95026"/>
     <use style="fill:#ffa500;stroke:#ffa500;" x="180.933434" xlink:href="#m1e16de2f45" y="205.063192"/>
     <use style="fill:#ffa500;stroke:#ffa500;" x="200.04712" xlink:href="#m1e16de2f45" y="208.638507"/>
     <use style="fill:#ffa500;stroke:#ffa500;" x="182.613393" xlink:href="#m1e16de2f45" y="101.794667"/>
     <use style="fill:#ffa500;stroke:#ffa500;" x="192.750218" xlink:href="#m1e16de2f45" y="210.088544"/>
     <use style="fill:#ffa500;stroke:#ffa500;" x="197.68369" xlink:href="#m1e16de2f45" y="192.241955"/>
     <use style="fill:#ffa500;stroke:#ffa500;" x="194.440158" xlink:href="#m1e16de2f45" y="138.636583"/>
     <use style="fill:#ffa500;stroke:#ffa500;" x="213.683498" xlink:href="#m1e16de2f45" y="230.7192"/>
     <use style="fill:#ffa500;stroke:#ffa500;" x="186.543999" xlink:href="#m1e16de2f45" y="222.716506"/>
     <use style="fill:#ffa500;stroke:#ffa500;" x="191.707082" xlink:href="#m1e16de2f45" y="162.218179"/>
     <use style="fill:#ffa500;stroke:#ffa500;" x="178.092237" xlink:href="#m1e16de2f45" y="187.557538"/>
     <use style="fill:#ffa500;stroke:#ffa500;" x="192.823851" xlink:href="#m1e16de2f45" y="152.222154"/>
     <use style="fill:#ffa500;stroke:#ffa500;" x="188.675853" xlink:href="#m1e16de2f45" y="137.113201"/>
     <use style="fill:#ffa500;stroke:#ffa500;" x="188.296949" xlink:href="#m1e16de2f45" y="123.058262"/>
     <use style="fill:#ffa500;stroke:#ffa500;" x="185.580128" xlink:href="#m1e16de2f45" y="175.838828"/>
     <use style="fill:#ffa500;stroke:#ffa500;" x="185.650532" xlink:href="#m1e16de2f45" y="163.156472"/>
     <use style="fill:#ffa500;stroke:#ffa500;" x="188.185957" xlink:href="#m1e16de2f45" y="165.686649"/>
     <use style="fill:#ffa500;stroke:#ffa500;" x="201.305977" xlink:href="#m1e16de2f45" y="184.483105"/>
     <use style="fill:#ffa500;stroke:#ffa500;" x="179.784245" xlink:href="#m1e16de2f45" y="114.903281"/>
     <use style="fill:#ffa500;stroke:#ffa500;" x="204.204258" xlink:href="#m1e16de2f45" y="137.925189"/>
    </g>
   </g>
   <g id="matplotlib.axis_1">
    <g id="xtick_1">
     <g id="line2d_1">
      <defs>
       <path d="M 0 0 
L 0 3.5 
" id="m064142f7ac" style="stroke:#000000;stroke-width:0.8;"/>
      </defs>
      <g>
       <use style="stroke:#000000;stroke-width:0.8;" x="62.857587" xlink:href="#m064142f7ac" y="252"/>
      </g>
     </g>
     <g id="text_1">
      <!-- 30 -->
      <defs>
       <path d="M 40.578125 39.3125 
Q 47.65625 37.796875 51.625 33 
Q 55.609375 28.21875 55.609375 21.1875 
Q 55.609375 10.40625 48.1875 4.484375 
Q 40.765625 -1.421875 27.09375 -1.421875 
Q 22.515625 -1.421875 17.65625 -0.515625 
Q 12.796875 0.390625 7.625 2.203125 
L 7.625 11.71875 
Q 11.71875 9.328125 16.59375 8.109375 
Q 21.484375 6.890625 26.8125 6.890625 
Q 36.078125 6.890625 40.9375 10.546875 
Q 45.796875 14.203125 45.796875 21.1875 
Q 45.796875 27.640625 41.28125 31.265625 
Q 36.765625 34.90625 28.71875 34.90625 
L 20.21875 34.90625 
L 20.21875 43.015625 
L 29.109375 43.015625 
Q 36.375 43.015625 40.234375 45.921875 
Q 44.09375 48.828125 44.09375 54.296875 
Q 44.09375 59.90625 40.109375 62.90625 
Q 36.140625 65.921875 28.71875 65.921875 
Q 24.65625 65.921875 20.015625 65.03125 
Q 15.375 64.15625 9.8125 62.3125 
L 9.8125 71.09375 
Q 15.4375 72.65625 20.34375 73.4375 
Q 25.25 74.21875 29.59375 74.21875 
Q 40.828125 74.21875 47.359375 69.109375 
Q 53.90625 64.015625 53.90625 55.328125 
Q 53.90625 49.265625 50.4375 45.09375 
Q 46.96875 40.921875 40.578125 39.3125 
z
" id="DejaVuSans-51"/>
       <path d="M 31.78125 66.40625 
Q 24.171875 66.40625 20.328125 58.90625 
Q 16.5 51.421875 16.5 36.375 
Q 16.5 21.390625 20.328125 13.890625 
Q 24.171875 6.390625 31.78125 6.390625 
Q 39.453125 6.390625 43.28125 13.890625 
Q 47.125 21.390625 47.125 36.375 
Q 47.125 51.421875 43.28125 58.90625 
Q 39.453125 66.40625 31.78125 66.40625 
z
M 31.78125 74.21875 
Q 44.046875 74.21875 50.515625 64.515625 
Q 56.984375 54.828125 56.984375 36.375 
Q 56.984375 17.96875 50.515625 8.265625 
Q 44.046875 -1.421875 31.78125 -1.421875 
Q 19.53125 -1.421875 13.0625 8.265625 
Q 6.59375 17.96875 6.59375 36.375 
Q 6.59375 54.828125 13.0625 64.515625 
Q 19.53125 74.21875 31.78125 74.21875 
z
" id="DejaVuSans-48"/>
      </defs>
      <g transform="translate(56.495087 266.598437)scale(0.1 -0.1)">
       <use xlink:href="#DejaVuSans-51"/>
       <use x="63.623047" xlink:href="#DejaVuSans-48"/>
      </g>
     </g>
    </g>
    <g id="xtick_2">
     <g id="line2d_2">
      <g>
       <use style="stroke:#000000;stroke-width:0.8;" x="120.471663" xlink:href="#m064142f7ac" y="252"/>
      </g>
     </g>
     <g id="text_2">
      <!-- 40 -->
      <defs>
       <path d="M 37.796875 64.3125 
L 12.890625 25.390625 
L 37.796875 25.390625 
z
M 35.203125 72.90625 
L 47.609375 72.90625 
L 47.609375 25.390625 
L 58.015625 25.390625 
L 58.015625 17.1875 
L 47.609375 17.1875 
L 47.609375 0 
L 37.796875 0 
L 37.796875 17.1875 
L 4.890625 17.1875 
L 4.890625 26.703125 
z
" id="DejaVuSans-52"/>
      </defs>
      <g transform="translate(114.109163 266.598437)scale(0.1 -0.1)">
       <use xlink:href="#DejaVuSans-52"/>
       <use x="63.623047" xlink:href="#DejaVuSans-48"/>
      </g>
     </g>
    </g>
    <g id="xtick_3">
     <g id="line2d_3">
      <g>
       <use style="stroke:#000000;stroke-width:0.8;" x="178.08574" xlink:href="#m064142f7ac" y="252"/>
      </g>
     </g>
     <g id="text_3">
      <!-- 50 -->
      <defs>
       <path d="M 10.796875 72.90625 
L 49.515625 72.90625 
L 49.515625 64.59375 
L 19.828125 64.59375 
L 19.828125 46.734375 
Q 21.96875 47.46875 24.109375 47.828125 
Q 26.265625 48.1875 28.421875 48.1875 
Q 40.625 48.1875 47.75 41.5 
Q 54.890625 34.8125 54.890625 23.390625 
Q 54.890625 11.625 47.5625 5.09375 
Q 40.234375 -1.421875 26.90625 -1.421875 
Q 22.3125 -1.421875 17.546875 -0.640625 
Q 12.796875 0.140625 7.71875 1.703125 
L 7.71875 11.625 
Q 12.109375 9.234375 16.796875 8.0625 
Q 21.484375 6.890625 26.703125 6.890625 
Q 35.15625 6.890625 40.078125 11.328125 
Q 45.015625 15.765625 45.015625 23.390625 
Q 45.015625 31 40.078125 35.4375 
Q 35.15625 39.890625 26.703125 39.890625 
Q 22.75 39.890625 18.8125 39.015625 
Q 14.890625 38.140625 10.796875 36.28125 
z
" id="DejaVuSans-53"/>
      </defs>
      <g transform="translate(171.72324 266.598437)scale(0.1 -0.1)">
       <use xlink:href="#DejaVuSans-53"/>
       <use x="63.623047" xlink:href="#DejaVuSans-48"/>
      </g>
     </g>
    </g>
    <g id="xtick_4">
     <g id="line2d_4">
      <g>
       <use style="stroke:#000000;stroke-width:0.8;" x="235.699816" xlink:href="#m064142f7ac" y="252"/>
      </g>
     </g>
     <g id="text_4">
      <!-- 60 -->
      <defs>
       <path d="M 33.015625 40.375 
Q 26.375 40.375 22.484375 35.828125 
Q 18.609375 31.296875 18.609375 23.390625 
Q 18.609375 15.53125 22.484375 10.953125 
Q 26.375 6.390625 33.015625 6.390625 
Q 39.65625 6.390625 43.53125 10.953125 
Q 47.40625 15.53125 47.40625 23.390625 
Q 47.40625 31.296875 43.53125 35.828125 
Q 39.65625 40.375 33.015625 40.375 
z
M 52.59375 71.296875 
L 52.59375 62.3125 
Q 48.875 64.0625 45.09375 64.984375 
Q 41.3125 65.921875 37.59375 65.921875 
Q 27.828125 65.921875 22.671875 59.328125 
Q 17.53125 52.734375 16.796875 39.40625 
Q 19.671875 43.65625 24.015625 45.921875 
Q 28.375 48.1875 33.59375 48.1875 
Q 44.578125 48.1875 50.953125 41.515625 
Q 57.328125 34.859375 57.328125 23.390625 
Q 57.328125 12.15625 50.6875 5.359375 
Q 44.046875 -1.421875 33.015625 -1.421875 
Q 20.359375 -1.421875 13.671875 8.265625 
Q 6.984375 17.96875 6.984375 36.375 
Q 6.984375 53.65625 15.1875 63.9375 
Q 23.390625 74.21875 37.203125 74.21875 
Q 40.921875 74.21875 44.703125 73.484375 
Q 48.484375 72.75 52.59375 71.296875 
z
" id="DejaVuSans-54"/>
      </defs>
      <g transform="translate(229.337316 266.598437)scale(0.1 -0.1)">
       <use xlink:href="#DejaVuSans-54"/>
       <use x="63.623047" xlink:href="#DejaVuSans-48"/>
      </g>
     </g>
    </g>
    <g id="xtick_5">
     <g id="line2d_5">
      <g>
       <use style="stroke:#000000;stroke-width:0.8;" x="293.313892" xlink:href="#m064142f7ac" y="252"/>
      </g>
     </g>
     <g id="text_5">
      <!-- 70 -->
      <defs>
       <path d="M 8.203125 72.90625 
L 55.078125 72.90625 
L 55.078125 68.703125 
L 28.609375 0 
L 18.3125 0 
L 43.21875 64.59375 
L 8.203125 64.59375 
z
" id="DejaVuSans-55"/>
      </defs>
      <g transform="translate(286.951392 266.598437)scale(0.1 -0.1)">
       <use xlink:href="#DejaVuSans-55"/>
       <use x="63.623047" xlink:href="#DejaVuSans-48"/>
      </g>
     </g>
    </g>
    <g id="xtick_6">
     <g id="line2d_6">
      <g>
       <use style="stroke:#000000;stroke-width:0.8;" x="350.927968" xlink:href="#m064142f7ac" y="252"/>
      </g>
     </g>
     <g id="text_6">
      <!-- 80 -->
      <defs>
       <path d="M 31.78125 34.625 
Q 24.75 34.625 20.71875 30.859375 
Q 16.703125 27.09375 16.703125 20.515625 
Q 16.703125 13.921875 20.71875 10.15625 
Q 24.75 6.390625 31.78125 6.390625 
Q 38.8125 6.390625 42.859375 10.171875 
Q 46.921875 13.96875 46.921875 20.515625 
Q 46.921875 27.09375 42.890625 30.859375 
Q 38.875 34.625 31.78125 34.625 
z
M 21.921875 38.8125 
Q 15.578125 40.375 12.03125 44.71875 
Q 8.5 49.078125 8.5 55.328125 
Q 8.5 64.0625 14.71875 69.140625 
Q 20.953125 74.21875 31.78125 74.21875 
Q 42.671875 74.21875 48.875 69.140625 
Q 55.078125 64.0625 55.078125 55.328125 
Q 55.078125 49.078125 51.53125 44.71875 
Q 48 40.375 41.703125 38.8125 
Q 48.828125 37.15625 52.796875 32.3125 
Q 56.78125 27.484375 56.78125 20.515625 
Q 56.78125 9.90625 50.3125 4.234375 
Q 43.84375 -1.421875 31.78125 -1.421875 
Q 19.734375 -1.421875 13.25 4.234375 
Q 6.78125 9.90625 6.78125 20.515625 
Q 6.78125 27.484375 10.78125 32.3125 
Q 14.796875 37.15625 21.921875 38.8125 
z
M 18.3125 54.390625 
Q 18.3125 48.734375 21.84375 45.5625 
Q 25.390625 42.390625 31.78125 42.390625 
Q 38.140625 42.390625 41.71875 45.5625 
Q 45.3125 48.734375 45.3125 54.390625 
Q 45.3125 60.0625 41.71875 63.234375 
Q 38.140625 66.40625 31.78125 66.40625 
Q 25.390625 66.40625 21.84375 63.234375 
Q 18.3125 60.0625 18.3125 54.390625 
z
" id="DejaVuSans-56"/>
      </defs>
      <g transform="translate(344.565468 266.598437)scale(0.1 -0.1)">
       <use xlink:href="#DejaVuSans-56"/>
       <use x="63.623047" xlink:href="#DejaVuSans-48"/>
      </g>
     </g>
    </g>
   </g>
   <g id="matplotlib.axis_2">
    <g id="ytick_1">
     <g id="line2d_7">
      <defs>
       <path d="M 0 0 
L -3.5 0 
" id="m47c5bf20f3" style="stroke:#000000;stroke-width:0.8;"/>
      </defs>
      <g>
       <use style="stroke:#000000;stroke-width:0.8;" x="54" xlink:href="#m47c5bf20f3" y="236.825409"/>
      </g>
     </g>
     <g id="text_7">
      <!-- −30 -->
      <defs>
       <path d="M 10.59375 35.5 
L 73.1875 35.5 
L 73.1875 27.203125 
L 10.59375 27.203125 
z
" id="DejaVuSans-8722"/>
      </defs>
      <g transform="translate(25.895312 240.624628)scale(0.1 -0.1)">
       <use xlink:href="#DejaVuSans-8722"/>
       <use x="83.789062" xlink:href="#DejaVuSans-51"/>
       <use x="147.412109" xlink:href="#DejaVuSans-48"/>
      </g>
     </g>
    </g>
    <g id="ytick_2">
     <g id="line2d_8">
      <g>
       <use style="stroke:#000000;stroke-width:0.8;" x="54" xlink:href="#m47c5bf20f3" y="209.646325"/>
      </g>
     </g>
     <g id="text_8">
      <!-- −20 -->
      <defs>
       <path d="M 19.1875 8.296875 
L 53.609375 8.296875 
L 53.609375 0 
L 7.328125 0 
L 7.328125 8.296875 
Q 12.9375 14.109375 22.625 23.890625 
Q 32.328125 33.6875 34.8125 36.53125 
Q 39.546875 41.84375 41.421875 45.53125 
Q 43.3125 49.21875 43.3125 52.78125 
Q 43.3125 58.59375 39.234375 62.25 
Q 35.15625 65.921875 28.609375 65.921875 
Q 23.96875 65.921875 18.8125 64.3125 
Q 13.671875 62.703125 7.8125 59.421875 
L 7.8125 69.390625 
Q 13.765625 71.78125 18.9375 73 
Q 24.125 74.21875 28.421875 74.21875 
Q 39.75 74.21875 46.484375 68.546875 
Q 53.21875 62.890625 53.21875 53.421875 
Q 53.21875 48.921875 51.53125 44.890625 
Q 49.859375 40.875 45.40625 35.40625 
Q 44.1875 33.984375 37.640625 27.21875 
Q 31.109375 20.453125 19.1875 8.296875 
z
" id="DejaVuSans-50"/>
      </defs>
      <g transform="translate(25.895312 213.445544)scale(0.1 -0.1)">
       <use xlink:href="#DejaVuSans-8722"/>
       <use x="83.789062" xlink:href="#DejaVuSans-50"/>
       <use x="147.412109" xlink:href="#DejaVuSans-48"/>
      </g>
     </g>
    </g>
    <g id="ytick_3">
     <g id="line2d_9">
      <g>
       <use style="stroke:#000000;stroke-width:0.8;" x="54" xlink:href="#m47c5bf20f3" y="182.467241"/>
      </g>
     </g>
     <g id="text_9">
      <!-- −10 -->
      <defs>
       <path d="M 12.40625 8.296875 
L 28.515625 8.296875 
L 28.515625 63.921875 
L 10.984375 60.40625 
L 10.984375 69.390625 
L 28.421875 72.90625 
L 38.28125 72.90625 
L 38.28125 8.296875 
L 54.390625 8.296875 
L 54.390625 0 
L 12.40625 0 
z
" id="DejaVuSans-49"/>
      </defs>
      <g transform="translate(25.895312 186.26646)scale(0.1 -0.1)">
       <use xlink:href="#DejaVuSans-8722"/>
       <use x="83.789062" xlink:href="#DejaVuSans-49"/>
       <use x="147.412109" xlink:href="#DejaVuSans-48"/>
      </g>
     </g>
    </g>
    <g id="ytick_4">
     <g id="line2d_10">
      <g>
       <use style="stroke:#000000;stroke-width:0.8;" x="54" xlink:href="#m47c5bf20f3" y="155.288157"/>
      </g>
     </g>
     <g id="text_10">
      <!-- 0 -->
      <g transform="translate(40.6375 159.087376)scale(0.1 -0.1)">
       <use xlink:href="#DejaVuSans-48"/>
      </g>
     </g>
    </g>
    <g id="ytick_5">
     <g id="line2d_11">
      <g>
       <use style="stroke:#000000;stroke-width:0.8;" x="54" xlink:href="#m47c5bf20f3" y="128.109073"/>
      </g>
     </g>
     <g id="text_11">
      <!-- 10 -->
      <g transform="translate(34.275 131.908291)scale(0.1 -0.1)">
       <use xlink:href="#DejaVuSans-49"/>
       <use x="63.623047" xlink:href="#DejaVuSans-48"/>
      </g>
     </g>
    </g>
    <g id="ytick_6">
     <g id="line2d_12">
      <g>
       <use style="stroke:#000000;stroke-width:0.8;" x="54" xlink:href="#m47c5bf20f3" y="100.929989"/>
      </g>
     </g>
     <g id="text_12">
      <!-- 20 -->
      <g transform="translate(34.275 104.729207)scale(0.1 -0.1)">
       <use xlink:href="#DejaVuSans-50"/>
       <use x="63.623047" xlink:href="#DejaVuSans-48"/>
      </g>
     </g>
    </g>
    <g id="ytick_7">
     <g id="line2d_13">
      <g>
       <use style="stroke:#000000;stroke-width:0.8;" x="54" xlink:href="#m47c5bf20f3" y="73.750904"/>
      </g>
     </g>
     <g id="text_13">
      <!-- 30 -->
      <g transform="translate(34.275 77.550123)scale(0.1 -0.1)">
       <use xlink:href="#DejaVuSans-51"/>
       <use x="63.623047" xlink:href="#DejaVuSans-48"/>
      </g>
     </g>
    </g>
    <g id="ytick_8">
     <g id="line2d_14">
      <g>
       <use style="stroke:#000000;stroke-width:0.8;" x="54" xlink:href="#m47c5bf20f3" y="46.57182"/>
      </g>
     </g>
     <g id="text_14">
      <!-- 40 -->
      <g transform="translate(34.275 50.371039)scale(0.1 -0.1)">
       <use xlink:href="#DejaVuSans-52"/>
       <use x="63.623047" xlink:href="#DejaVuSans-48"/>
      </g>
     </g>
    </g>
   </g>
   <g id="LineCollection_1">
    <path clip-path="url(#p208cbd062f)" d="M 69.218182 155.288157 
L 373.581818 155.288157 
" style="fill:none;stroke:#000000;stroke-width:1.5;"/>
   </g>
   <g id="patch_3">
    <path d="M 54 252 
L 54 34.56 
" style="fill:none;stroke:#000000;stroke-linecap:square;stroke-linejoin:miter;stroke-width:0.8;"/>
   </g>
   <g id="patch_4">
    <path d="M 388.8 252 
L 388.8 34.56 
" style="fill:none;stroke:#000000;stroke-linecap:square;stroke-linejoin:miter;stroke-width:0.8;"/>
   </g>
   <g id="patch_5">
    <path d="M 54 252 
L 388.8 252 
" style="fill:none;stroke:#000000;stroke-linecap:square;stroke-linejoin:miter;stroke-width:0.8;"/>
   </g>
   <g id="patch_6">
    <path d="M 54 34.56 
L 388.8 34.56 
" style="fill:none;stroke:#000000;stroke-linecap:square;stroke-linejoin:miter;stroke-width:0.8;"/>
   </g>
   <g id="text_15">
    <!-- Residual Plot -->
    <defs>
     <path d="M 44.390625 34.1875 
Q 47.5625 33.109375 50.5625 29.59375 
Q 53.5625 26.078125 56.59375 19.921875 
L 66.609375 0 
L 56 0 
L 46.6875 18.703125 
Q 43.0625 26.03125 39.671875 28.421875 
Q 36.28125 30.8125 30.421875 30.8125 
L 19.671875 30.8125 
L 19.671875 0 
L 9.8125 0 
L 9.8125 72.90625 
L 32.078125 72.90625 
Q 44.578125 72.90625 50.734375 67.671875 
Q 56.890625 62.453125 56.890625 51.90625 
Q 56.890625 45.015625 53.6875 40.46875 
Q 50.484375 35.9375 44.390625 34.1875 
z
M 19.671875 64.796875 
L 19.671875 38.921875 
L 32.078125 38.921875 
Q 39.203125 38.921875 42.84375 42.21875 
Q 46.484375 45.515625 46.484375 51.90625 
Q 46.484375 58.296875 42.84375 61.546875 
Q 39.203125 64.796875 32.078125 64.796875 
z
" id="DejaVuSans-82"/>
     <path d="M 56.203125 29.59375 
L 56.203125 25.203125 
L 14.890625 25.203125 
Q 15.484375 15.921875 20.484375 11.0625 
Q 25.484375 6.203125 34.421875 6.203125 
Q 39.59375 6.203125 44.453125 7.46875 
Q 49.3125 8.734375 54.109375 11.28125 
L 54.109375 2.78125 
Q 49.265625 0.734375 44.1875 -0.34375 
Q 39.109375 -1.421875 33.890625 -1.421875 
Q 20.796875 -1.421875 13.15625 6.1875 
Q 5.515625 13.8125 5.515625 26.8125 
Q 5.515625 40.234375 12.765625 48.109375 
Q 20.015625 56 32.328125 56 
Q 43.359375 56 49.78125 48.890625 
Q 56.203125 41.796875 56.203125 29.59375 
z
M 47.21875 32.234375 
Q 47.125 39.59375 43.09375 43.984375 
Q 39.0625 48.390625 32.421875 48.390625 
Q 24.90625 48.390625 20.390625 44.140625 
Q 15.875 39.890625 15.1875 32.171875 
z
" id="DejaVuSans-101"/>
     <path d="M 44.28125 53.078125 
L 44.28125 44.578125 
Q 40.484375 46.53125 36.375 47.5 
Q 32.28125 48.484375 27.875 48.484375 
Q 21.1875 48.484375 17.84375 46.4375 
Q 14.5 44.390625 14.5 40.28125 
Q 14.5 37.15625 16.890625 35.375 
Q 19.28125 33.59375 26.515625 31.984375 
L 29.59375 31.296875 
Q 39.15625 29.25 43.1875 25.515625 
Q 47.21875 21.78125 47.21875 15.09375 
Q 47.21875 7.46875 41.1875 3.015625 
Q 35.15625 -1.421875 24.609375 -1.421875 
Q 20.21875 -1.421875 15.453125 -0.5625 
Q 10.6875 0.296875 5.421875 2 
L 5.421875 11.28125 
Q 10.40625 8.6875 15.234375 7.390625 
Q 20.0625 6.109375 24.8125 6.109375 
Q 31.15625 6.109375 34.5625 8.28125 
Q 37.984375 10.453125 37.984375 14.40625 
Q 37.984375 18.0625 35.515625 20.015625 
Q 33.0625 21.96875 24.703125 23.78125 
L 21.578125 24.515625 
Q 13.234375 26.265625 9.515625 29.90625 
Q 5.8125 33.546875 5.8125 39.890625 
Q 5.8125 47.609375 11.28125 51.796875 
Q 16.75 56 26.8125 56 
Q 31.78125 56 36.171875 55.265625 
Q 40.578125 54.546875 44.28125 53.078125 
z
" id="DejaVuSans-115"/>
     <path d="M 9.421875 54.6875 
L 18.40625 54.6875 
L 18.40625 0 
L 9.421875 0 
z
M 9.421875 75.984375 
L 18.40625 75.984375 
L 18.40625 64.59375 
L 9.421875 64.59375 
z
" id="DejaVuSans-105"/>
     <path d="M 45.40625 46.390625 
L 45.40625 75.984375 
L 54.390625 75.984375 
L 54.390625 0 
L 45.40625 0 
L 45.40625 8.203125 
Q 42.578125 3.328125 38.25 0.953125 
Q 33.9375 -1.421875 27.875 -1.421875 
Q 17.96875 -1.421875 11.734375 6.484375 
Q 5.515625 14.40625 5.515625 27.296875 
Q 5.515625 40.1875 11.734375 48.09375 
Q 17.96875 56 27.875 56 
Q 33.9375 56 38.25 53.625 
Q 42.578125 51.265625 45.40625 46.390625 
z
M 14.796875 27.296875 
Q 14.796875 17.390625 18.875 11.75 
Q 22.953125 6.109375 30.078125 6.109375 
Q 37.203125 6.109375 41.296875 11.75 
Q 45.40625 17.390625 45.40625 27.296875 
Q 45.40625 37.203125 41.296875 42.84375 
Q 37.203125 48.484375 30.078125 48.484375 
Q 22.953125 48.484375 18.875 42.84375 
Q 14.796875 37.203125 14.796875 27.296875 
z
" id="DejaVuSans-100"/>
     <path d="M 8.5 21.578125 
L 8.5 54.6875 
L 17.484375 54.6875 
L 17.484375 21.921875 
Q 17.484375 14.15625 20.5 10.265625 
Q 23.53125 6.390625 29.59375 6.390625 
Q 36.859375 6.390625 41.078125 11.03125 
Q 45.3125 15.671875 45.3125 23.6875 
L 45.3125 54.6875 
L 54.296875 54.6875 
L 54.296875 0 
L 45.3125 0 
L 45.3125 8.40625 
Q 42.046875 3.421875 37.71875 1 
Q 33.40625 -1.421875 27.6875 -1.421875 
Q 18.265625 -1.421875 13.375 4.4375 
Q 8.5 10.296875 8.5 21.578125 
z
M 31.109375 56 
z
" id="DejaVuSans-117"/>
     <path d="M 34.28125 27.484375 
Q 23.390625 27.484375 19.1875 25 
Q 14.984375 22.515625 14.984375 16.5 
Q 14.984375 11.71875 18.140625 8.90625 
Q 21.296875 6.109375 26.703125 6.109375 
Q 34.1875 6.109375 38.703125 11.40625 
Q 43.21875 16.703125 43.21875 25.484375 
L 43.21875 27.484375 
z
M 52.203125 31.203125 
L 52.203125 0 
L 43.21875 0 
L 43.21875 8.296875 
Q 40.140625 3.328125 35.546875 0.953125 
Q 30.953125 -1.421875 24.3125 -1.421875 
Q 15.921875 -1.421875 10.953125 3.296875 
Q 6 8.015625 6 15.921875 
Q 6 25.140625 12.171875 29.828125 
Q 18.359375 34.515625 30.609375 34.515625 
L 43.21875 34.515625 
L 43.21875 35.40625 
Q 43.21875 41.609375 39.140625 45 
Q 35.0625 48.390625 27.6875 48.390625 
Q 23 48.390625 18.546875 47.265625 
Q 14.109375 46.140625 10.015625 43.890625 
L 10.015625 52.203125 
Q 14.9375 54.109375 19.578125 55.046875 
Q 24.21875 56 28.609375 56 
Q 40.484375 56 46.34375 49.84375 
Q 52.203125 43.703125 52.203125 31.203125 
z
" id="DejaVuSans-97"/>
     <path d="M 9.421875 75.984375 
L 18.40625 75.984375 
L 18.40625 0 
L 9.421875 0 
z
" id="DejaVuSans-108"/>
     <path id="DejaVuSans-32"/>
     <path d="M 19.671875 64.796875 
L 19.671875 37.40625 
L 32.078125 37.40625 
Q 38.96875 37.40625 42.71875 40.96875 
Q 46.484375 44.53125 46.484375 51.125 
Q 46.484375 57.671875 42.71875 61.234375 
Q 38.96875 64.796875 32.078125 64.796875 
z
M 9.8125 72.90625 
L 32.078125 72.90625 
Q 44.34375 72.90625 50.609375 67.359375 
Q 56.890625 61.8125 56.890625 51.125 
Q 56.890625 40.328125 50.609375 34.8125 
Q 44.34375 29.296875 32.078125 29.296875 
L 19.671875 29.296875 
L 19.671875 0 
L 9.8125 0 
z
" id="DejaVuSans-80"/>
     <path d="M 30.609375 48.390625 
Q 23.390625 48.390625 19.1875 42.75 
Q 14.984375 37.109375 14.984375 27.296875 
Q 14.984375 17.484375 19.15625 11.84375 
Q 23.34375 6.203125 30.609375 6.203125 
Q 37.796875 6.203125 41.984375 11.859375 
Q 46.1875 17.53125 46.1875 27.296875 
Q 46.1875 37.015625 41.984375 42.703125 
Q 37.796875 48.390625 30.609375 48.390625 
z
M 30.609375 56 
Q 42.328125 56 49.015625 48.375 
Q 55.71875 40.765625 55.71875 27.296875 
Q 55.71875 13.875 49.015625 6.21875 
Q 42.328125 -1.421875 30.609375 -1.421875 
Q 18.84375 -1.421875 12.171875 6.21875 
Q 5.515625 13.875 5.515625 27.296875 
Q 5.515625 40.765625 12.171875 48.375 
Q 18.84375 56 30.609375 56 
z
" id="DejaVuSans-111"/>
     <path d="M 18.3125 70.21875 
L 18.3125 54.6875 
L 36.8125 54.6875 
L 36.8125 47.703125 
L 18.3125 47.703125 
L 18.3125 18.015625 
Q 18.3125 11.328125 20.140625 9.421875 
Q 21.96875 7.515625 27.59375 7.515625 
L 36.8125 7.515625 
L 36.8125 0 
L 27.59375 0 
Q 17.1875 0 13.234375 3.875 
Q 9.28125 7.765625 9.28125 18.015625 
L 9.28125 47.703125 
L 2.6875 47.703125 
L 2.6875 54.6875 
L 9.28125 54.6875 
L 9.28125 70.21875 
z
" id="DejaVuSans-116"/>
    </defs>
    <g transform="translate(182.58 28.56)scale(0.12 -0.12)">
     <use xlink:href="#DejaVuSans-82"/>
     <use x="69.419922" xlink:href="#DejaVuSans-101"/>
     <use x="130.943359" xlink:href="#DejaVuSans-115"/>
     <use x="183.042969" xlink:href="#DejaVuSans-105"/>
     <use x="210.826172" xlink:href="#DejaVuSans-100"/>
     <use x="274.302734" xlink:href="#DejaVuSans-117"/>
     <use x="337.681641" xlink:href="#DejaVuSans-97"/>
     <use x="398.960938" xlink:href="#DejaVuSans-108"/>
     <use x="426.744141" xlink:href="#DejaVuSans-32"/>
     <use x="458.53125" xlink:href="#DejaVuSans-80"/>
     <use x="518.833984" xlink:href="#DejaVuSans-108"/>
     <use x="546.617188" xlink:href="#DejaVuSans-111"/>
     <use x="607.798828" xlink:href="#DejaVuSans-116"/>
    </g>
   </g>
   <g id="legend_1">
    <g id="patch_7">
     <path d="M 281.840625 71.91625 
L 381.8 71.91625 
Q 383.8 71.91625 383.8 69.91625 
L 383.8 41.56 
Q 383.8 39.56 381.8 39.56 
L 281.840625 39.56 
Q 279.840625 39.56 279.840625 41.56 
L 279.840625 69.91625 
Q 279.840625 71.91625 281.840625 71.91625 
z
" style="fill:#ffffff;opacity:0.8;stroke:#cccccc;stroke-linejoin:miter;"/>
    </g>
    <g id="PathCollection_3">
     <g>
      <use style="fill:#0000ff;stroke:#0000ff;" x="293.840625" xlink:href="#m799111b335" y="48.533437"/>
     </g>
    </g>
    <g id="text_16">
     <!-- Training Data -->
     <defs>
      <path d="M -0.296875 72.90625 
L 61.375 72.90625 
L 61.375 64.59375 
L 35.5 64.59375 
L 35.5 0 
L 25.59375 0 
L 25.59375 64.59375 
L -0.296875 64.59375 
z
" id="DejaVuSans-84"/>
      <path d="M 41.109375 46.296875 
Q 39.59375 47.171875 37.8125 47.578125 
Q 36.03125 48 33.890625 48 
Q 26.265625 48 22.1875 43.046875 
Q 18.109375 38.09375 18.109375 28.8125 
L 18.109375 0 
L 9.078125 0 
L 9.078125 54.6875 
L 18.109375 54.6875 
L 18.109375 46.1875 
Q 20.953125 51.171875 25.484375 53.578125 
Q 30.03125 56 36.53125 56 
Q 37.453125 56 38.578125 55.875 
Q 39.703125 55.765625 41.0625 55.515625 
z
" id="DejaVuSans-114"/>
      <path d="M 54.890625 33.015625 
L 54.890625 0 
L 45.90625 0 
L 45.90625 32.71875 
Q 45.90625 40.484375 42.875 44.328125 
Q 39.84375 48.1875 33.796875 48.1875 
Q 26.515625 48.1875 22.3125 43.546875 
Q 18.109375 38.921875 18.109375 30.90625 
L 18.109375 0 
L 9.078125 0 
L 9.078125 54.6875 
L 18.109375 54.6875 
L 18.109375 46.1875 
Q 21.34375 51.125 25.703125 53.5625 
Q 30.078125 56 35.796875 56 
Q 45.21875 56 50.046875 50.171875 
Q 54.890625 44.34375 54.890625 33.015625 
z
" id="DejaVuSans-110"/>
      <path d="M 45.40625 27.984375 
Q 45.40625 37.75 41.375 43.109375 
Q 37.359375 48.484375 30.078125 48.484375 
Q 22.859375 48.484375 18.828125 43.109375 
Q 14.796875 37.75 14.796875 27.984375 
Q 14.796875 18.265625 18.828125 12.890625 
Q 22.859375 7.515625 30.078125 7.515625 
Q 37.359375 7.515625 41.375 12.890625 
Q 45.40625 18.265625 45.40625 27.984375 
z
M 54.390625 6.78125 
Q 54.390625 -7.171875 48.1875 -13.984375 
Q 42 -20.796875 29.203125 -20.796875 
Q 24.46875 -20.796875 20.265625 -20.09375 
Q 16.0625 -19.390625 12.109375 -17.921875 
L 12.109375 -9.1875 
Q 16.0625 -11.328125 19.921875 -12.34375 
Q 23.78125 -13.375 27.78125 -13.375 
Q 36.625 -13.375 41.015625 -8.765625 
Q 45.40625 -4.15625 45.40625 5.171875 
L 45.40625 9.625 
Q 42.625 4.78125 38.28125 2.390625 
Q 33.9375 0 27.875 0 
Q 17.828125 0 11.671875 7.65625 
Q 5.515625 15.328125 5.515625 27.984375 
Q 5.515625 40.671875 11.671875 48.328125 
Q 17.828125 56 27.875 56 
Q 33.9375 56 38.28125 53.609375 
Q 42.625 51.21875 45.40625 46.390625 
L 45.40625 54.6875 
L 54.390625 54.6875 
z
" id="DejaVuSans-103"/>
      <path d="M 19.671875 64.796875 
L 19.671875 8.109375 
L 31.59375 8.109375 
Q 46.6875 8.109375 53.6875 14.9375 
Q 60.6875 21.78125 60.6875 36.53125 
Q 60.6875 51.171875 53.6875 57.984375 
Q 46.6875 64.796875 31.59375 64.796875 
z
M 9.8125 72.90625 
L 30.078125 72.90625 
Q 51.265625 72.90625 61.171875 64.09375 
Q 71.09375 55.28125 71.09375 36.53125 
Q 71.09375 17.671875 61.125 8.828125 
Q 51.171875 0 30.078125 0 
L 9.8125 0 
z
" id="DejaVuSans-68"/>
     </defs>
     <g transform="translate(311.840625 51.158437)scale(0.1 -0.1)">
      <use xlink:href="#DejaVuSans-84"/>
      <use x="60.865234" xlink:href="#DejaVuSans-114"/>
      <use x="101.978516" xlink:href="#DejaVuSans-97"/>
      <use x="163.257812" xlink:href="#DejaVuSans-105"/>
      <use x="191.041016" xlink:href="#DejaVuSans-110"/>
      <use x="254.419922" xlink:href="#DejaVuSans-105"/>
      <use x="282.203125" xlink:href="#DejaVuSans-110"/>
      <use x="345.582031" xlink:href="#DejaVuSans-103"/>
      <use x="409.058594" xlink:href="#DejaVuSans-32"/>
      <use x="440.845703" xlink:href="#DejaVuSans-68"/>
      <use x="517.847656" xlink:href="#DejaVuSans-97"/>
      <use x="579.126953" xlink:href="#DejaVuSans-116"/>
      <use x="618.335938" xlink:href="#DejaVuSans-97"/>
     </g>
    </g>
    <g id="PathCollection_4">
     <g>
      <use style="fill:#ffa500;stroke:#ffa500;" x="293.840625" xlink:href="#m1e16de2f45" y="63.211562"/>
     </g>
    </g>
    <g id="text_17">
     <!-- Testing Data -->
     <g transform="translate(311.840625 65.836562)scale(0.1 -0.1)">
      <use xlink:href="#DejaVuSans-84"/>
      <use x="60.818359" xlink:href="#DejaVuSans-101"/>
      <use x="122.341797" xlink:href="#DejaVuSans-115"/>
      <use x="174.441406" xlink:href="#DejaVuSans-116"/>
      <use x="213.650391" xlink:href="#DejaVuSans-105"/>
      <use x="241.433594" xlink:href="#DejaVuSans-110"/>
      <use x="304.8125" xlink:href="#DejaVuSans-103"/>
      <use x="368.289062" xlink:href="#DejaVuSans-32"/>
      <use x="400.076172" xlink:href="#DejaVuSans-68"/>
      <use x="477.078125" xlink:href="#DejaVuSans-97"/>
      <use x="538.357422" xlink:href="#DejaVuSans-116"/>
      <use x="577.566406" xlink:href="#DejaVuSans-97"/>
     </g>
    </g>
   </g>
  </g>
 </g>
 <defs>
  <clipPath id="p208cbd062f">
   <rect height="217.44" width="334.8" x="54" y="34.56"/>
  </clipPath>
 </defs>
</svg>
